<svg xmlns="http://www.w3.org/2000/svg" viewBox="0 0 64 64">
  <rect width="64" height="64" rx="14" fill="#0a0a0a"/>
  <circle cx="32" cy="40" r="22" fill="#fcd34d" opacity="0.18"/>
  <path
    d="M32 8 C36 22 50 28 50 44 C50 56 42 60 32 60 C22 60 14 56 14 44 C14 34 22 28 24 22 C26 30 30 30 32 30 C32 22 32 16 32 8 Z"
    fill="#f97316"
  />
  <path
    d="M32 22 C34 30 42 32 42 44 C42 52 38 56 32 56 C26 56 22 52 22 44 C22 38 26 34 28 30 C28 34 30 34 32 34 C32 30 32 26 32 22 Z"
    fill="#fcd34d"
  />
</svg>
